<svg width="200" height="200" viewBox="0 0 200 200" role="img" xmlns="http://www.w3.org/2000/svg">
  <title>Иконка телефонной трубки со звуковыми волнами</title>

  <path d="
    M 78 62
    C 72 62 62 72 62 82
    C 62 110 90 138 118 138
    C 128 138 138 128 138 122
    L 138 110
    C 138 106 134 102 130 102
    L 118 102
    C 114 102 111 105 110 109
    L 108 115
    C 104 114 90 102 86 92
    L 92 90
    C 96 89 98 86 98 82
    L 98 70
    C 98 66 94 62 90 62
    Z
  " fill="#0a1628"/>

  <path d="M 148 85 Q 158 100 148 115" fill="none" stroke="#0a1628" stroke-width="4" stroke-linecap="round"/>
  <path d="M 160 76 Q 174 100 160 124" fill="none" stroke="#0a1628" stroke-width="3.5" stroke-linecap="round" opacity="0.6"/>

</svg>
